<svg height="480pt" viewBox="0 0 480 480" width="480pt" xmlns="http://www.w3.org/2000/svg"><path d="m432 240c0 106.039062-85.960938 192-192 192s-192-85.960938-192-192 85.960938-192 192-192 192 85.960938 192 192zm0 0" fill="#cfd2fc"/><path d="m240 480c-132.546875 0-240-107.453125-240-240s107.453125-240 240-240 240 107.453125 240 240c-.148438 132.484375-107.515625 239.851562-240 240zm0-464c-123.710938 0-224 100.289062-224 224s100.289062 224 224 224 224-100.289062 224-224c-.140625-123.652344-100.347656-223.859375-224-224zm0 0" fill="#8690fa"/><g fill="#5153ff"><path d="m352 248h-224c-4.417969 0-8-3.582031-8-8s3.582031-8 8-8h224c4.417969 0 8 3.582031 8 8s-3.582031 8-8 8zm0 0"/><path d="m352 248c-2.375 0-4.625-1.054688-6.144531-2.878906l-80-96c-1.910157-2.1875-2.488281-5.238282-1.507813-7.96875.980469-2.734375 3.363282-4.722656 6.230469-5.195313 2.863281-.46875 5.761719.648438 7.566406 2.921875l80 96c1.984375 2.386719 2.414063 5.703125 1.097657 8.515625-1.316407 2.808594-4.140626 4.605469-7.242188 4.605469zm0 0"/><path d="m272 344c-3.101562 0-5.925781-1.796875-7.242188-4.605469-1.316406-2.8125-.886718-6.128906 1.097657-8.515625l80-96c1.804687-2.273437 4.703125-3.390625 7.566406-2.921875 2.867187.472657 5.25 2.460938 6.230469 5.195313.980468 2.730468.402344 5.78125-1.507813 7.96875l-80 96c-1.519531 1.824218-3.769531 2.878906-6.144531 2.878906zm0 0"/></g></svg>